<?xml version="1.0" encoding="UTF-8"?>
<svg id="Layer_2" data-name="Layer 2" xmlns="http://www.w3.org/2000/svg" xmlns:xlink="http://www.w3.org/1999/xlink" viewBox="0 0 825.96 487.34">
  <defs>
    <style>
      .cls-1 {
        fill: url(#linear-gradient);
      }
    </style>
    <linearGradient id="linear-gradient" x1="49.11" y1="90.61" x2="796.94" y2="441.26" gradientUnits="userSpaceOnUse">
      <stop offset="0" stop-color="#ea54b6"/>
      <stop offset="1" stop-color="#f4bd36"/>
    </linearGradient>
  </defs>
  <g id="Layer_1-2" data-name="Layer 1">
    <path class="cls-1" d="M379.57,104.17c-1.53-7.72,3.48-15.19,11.2-16.75l101.33-20.44c.95-.18,1.89-.27,2.84-.27,6.68,0,12.66,4.7,14.01,11.5l18.28,92.62c2.39,12.1-8.99,22.26-20.8,18.7-8.13-2.45-16.71-3.77-25.52-3.77-21.3,0-41.25,7.69-56.85,20.63-9.43,7.82-23.84,2.38-26.21-9.64l-18.27-92.58ZM572.88,211.14c6.59,13.1,24.22,15.3,34.02,4.39,16.52-18.38,40.44-29.78,66.38-29.78.14,0,.28,0,.42,0,15.62.07,25.99-16.03,18.98-29.99l-39.6-78.78c-2.5-5-7.54-7.87-12.75-7.87-2.17,0-4.33.49-6.41,1.53l-92.36,46.41c-7.05,3.54-9.89,12.11-6.35,19.16l37.67,74.94ZM117.71,64.91c2.06.13,4.06.82,5.76,1.99l2,1.37-13.75-60.2c-.88-4.68-4.96-8.07-9.72-8.07h-48.54c-4.76,0-8.85,3.39-9.72,8.07l-13.75,60.2c1.97-1.97,4.58-3.16,7.36-3.34,26.76-1.68,53.59-1.69,80.35-.02ZM563.32,353.9c-2.36-11.94-16.63-17.4-26.07-9.72-15.46,12.59-35.15,19.89-56.35,19.89-9.13,0-17.98-1.36-26.34-3.91-11.8-3.61-23.19,6.59-20.8,18.69l19.13,96.98c1.53,7.75,9.09,12.78,16.84,11.23l101.33-20.44c7.72-1.56,12.72-9.03,11.2-16.75l-18.94-95.97ZM824.43,417.95l-49.11-97.71c-5.09-10.13-19.28-10.38-24.98-.58-15.45,26.53-44.2,44.41-77.06,44.41-.09,0-.18,0-.26,0-10.69-.03-17.79,10.96-12.99,20.51l46.54,92.6c3.54,7.05,12.11,9.89,19.16,6.35l92.36-46.41c7.05-3.54,9.89-12.11,6.35-19.16ZM22.9,91.86c15-11.47,33.75-18.3,54.05-18.3s39.26,6.83,54.47,18.54c4.79,3.69,11.71.42,11.71-5.63v-.25c0-7.89-6.39-14.28-14.28-14.28-34.34-4.05-69.04-4.05-103.37,0-7.89,0-14.28,6.39-14.28,14.28,0,6.04,6.91,9.31,11.7,5.64ZM673.28,351.86c-12.02,0-23.4-2.75-33.53-7.66-19.1-9.28-33.81-26.21-40.09-46.84h-45.13c-.46,1.46-.95,2.93-1.5,4.36-10.86,29.29-39.06,50.13-72.13,50.13-22.91,0-43.51-10.01-57.58-25.94-7.26-8.15-12.78-17.85-16.05-28.56h-31.37c-18.83,0-34.88,13.58-37.96,32.13l-3.17,18.98c-6.16,37.1-38.26,64.29-75.88,64.29h-30.48c-8.54,33.2-38.66,57.73-74.51,57.73-3.69,0-7.32-.27-10.89-.79-37.35-5.28-66.06-37.35-66.06-76.16s28.77-70.97,66.18-76.19c3.51-.52,7.11-.76,10.77-.76,35.85,0,65.97,24.53,74.51,57.7h30.48c18.8,0,34.84-13.58,37.96-32.13l3.14-18.98c3.02-18,12.11-33.69,25.02-45.07-12.91-11.35-22-27.03-25.02-45.07l-3.14-18.95c-3.11-18.55-19.16-32.16-37.96-32.16h-107.43c-1.83,7.11-4.67,13.85-8.33,20.02-13.39,22.58-38.02,37.68-66.18,37.68s-52.24-14.8-65.75-36.95c-7.11-11.66-11.2-25.32-11.2-39.97s4.09-28.35,11.2-40c13.52-22.15,37.9-36.95,65.75-36.95s52.79,15.1,66.18,37.68c3.66,6.16,6.5,12.91,8.33,20.02h107.43c37.62,0,69.72,27.19,75.88,64.29l3.17,18.98c3.08,18.55,19.13,32.16,37.96,32.16h29.72c.67-3.2,1.56-6.32,2.62-9.37,10.5-30.02,39.06-51.57,72.65-51.57,22.37,0,42.53,9.55,56.57,24.81,9.21,9.95,15.81,22.37,18.7,36.13h41.83c7.35-34.81,38.26-60.93,75.27-60.93,19.01,0,36.37,6.9,49.8,18.34h.03c15.44,13.09,25.57,32.16,26.94,53.61v.06c.12,1.65.18,3.3.18,4.94,0,42.5-34.45,76.95-76.95,76.95ZM115.43,162.72c0-21.27-17.24-38.48-38.48-38.48s-38.48,17.21-38.48,38.48,17.21,38.44,38.48,38.44,38.48-17.21,38.48-38.44ZM192.35,393.54c0-21.24-17.21-38.48-38.44-38.48-3.75,0-7.35.52-10.77,1.56-16.02,4.64-27.7,19.44-27.7,36.92s11.69,32.28,27.7,36.92c3.42,1.04,7.02,1.56,10.77,1.56,21.24,0,38.44-17.24,38.44-38.48ZM519.37,274.91c0-21.24-17.21-38.48-38.48-38.48s-38.48,17.24-38.48,38.48,17.24,38.48,38.48,38.48,38.48-17.21,38.48-38.48ZM673.28,313.39c21.24,0,38.48-17.21,38.48-38.48s-17.24-38.48-38.48-38.48-38.48,17.24-38.48,38.48,17.21,38.48,38.48,38.48ZM64.75,393.54c0-45.49,34.3-83.18,78.39-88.48v-57.05c0-9.51-10.47-15.03-18.51-9.95-13.9,8.79-30.31,13.79-47.67,13.79s-33.55-4.98-47.25-13.57c-8.05-5.05-18.5.46-18.5,9.96v219.61c0,7.89,6.39,14.28,14.28,14.28h103.37c2.23,0,4.33-.52,6.22-1.43-40.15-8.67-70.33-44.46-70.33-87.14ZM674.71,90.98c5.73,0,10.38-4.65,10.38-10.38s-4.65-10.38-10.38-10.38-10.38,4.65-10.38,10.38,4.65,10.38,10.38,10.38ZM712.61,90.93c6.25,0,11.26-2.07,15.04-6.2.43-.49.64-.89.64-1.19,0-.21-.75-1.36-2.24-3.45-1.45-2.02-2.35-3.2-2.68-3.54-.2-.21-.41-.31-.61-.31-.1,0-.6.36-1.51,1.08-1.08.85-2.15,1.51-3.2,1.98-1.6.72-3.29,1.08-5.07,1.08-3.02,0-5.42-1.06-7.23-3.17-1.66-1.94-2.49-4.35-2.49-7.22s.83-5.21,2.49-7.13c1.8-2.08,4.21-3.11,7.23-3.11,1.74,0,3.42.38,5.04,1.13,1.07.51,2.15,1.22,3.26,2.12.92.76,1.43,1.13,1.54,1.13.24,0,.45-.07.61-.23.37-.28,1.27-1.57,2.69-3.88,1.42-2.3,2.14-3.63,2.14-3.99,0-.32-.21-.69-.61-1.1-3.77-3.75-8.98-5.63-15.62-5.63-6.11,0-11.14,2.09-15.1,6.28-3.79,4-5.69,8.87-5.69,14.61s1.94,10.83,5.81,14.72c3.97,4.02,9.16,6.03,15.56,6.03ZM736.62,84.87c-4.1-3.98-6.15-8.9-6.15-14.75s2.05-10.8,6.15-14.8c4.18-4.09,9.44-6.14,15.77-6.14s11.54,2.05,15.74,6.14c4.12,4.04,6.18,8.97,6.18,14.8s-2.04,10.82-6.12,14.8c-4.16,4.04-9.43,6.06-15.8,6.06s-11.59-2.04-15.77-6.11ZM742.13,70.12c0,2.89.91,5.29,2.74,7.22,1.92,2.02,4.44,3.03,7.53,3.03,2.89,0,5.35-1.07,7.38-3.2,1.93-2.04,2.89-4.41,2.89-7.11s-.93-5.24-2.8-7.22c-1.95-2.08-4.44-3.11-7.47-3.11s-5.34,1.08-7.35,3.23c-1.95,2.08-2.92,4.46-2.92,7.16ZM778.9,89.11c0,.3.05.51.14.64.09.12.34.18.75.18h10.27c.57,0,.86-.33.86-.99,0-1.85-.05-4.62-.15-8.32-.1-3.7-.15-6.47-.15-8.32,0-.38.07-.65.21-.82.14.11.24.22.28.31.96,1.87,2.41,4.9,4.34,9.09,1.8,3.96,3.26,6.98,4.37,9.06.21.38.84.57,1.91.57.72,0,1.13-.01,1.23-.03.31-.08.57-.33.77-.76,1.48-3.34,2.95-6.69,4.43-10.05,2.52-5.72,3.89-8.63,4.12-8.75.18.04.28.33.28.88,0,1.91-.08,4.77-.23,8.58-.15,3.81-.23,6.67-.23,8.58,0,.66.3.99.89.99h10.88c.59,0,.89-.29.89-.88,0-2.04-.09-5.11-.28-9.23-.18-4.11-.28-7.2-.28-9.26,0-2.23.09-5.55.26-9.98.18-4.42.26-7.75.26-9.98,0-.45-.31-.68-.92-.68-.51,0-1.3.05-2.35.14-1.05.1-1.84.14-2.35.14-.62,0-1.52-.03-2.72-.08-1.2-.06-2.09-.08-2.69-.08-.41,0-.79.37-1.14,1.1-4.06,7.98-7.12,13.96-9.19,17.92-.74,1.42-1.22,2.12-1.45,2.12-.43,0-.97-.61-1.6-1.84l-8.98-18.14c-.41-.79-.73-1.19-.95-1.19-1.13,0-2.82.03-5.07.1-2.26.07-3.95.1-5.07.1-.88,0-1.31.19-1.29.57l.03.48c.16,3.1.26,5.43.28,6.99.2,6.02.31,10.12.31,12.31,0,2.06-.11,5.15-.32,9.27-.22,4.12-.32,7.22-.32,9.27Z"/>
  </g>
</svg>